  <svg className='' width="1068" height="329" viewBox="0 0 1068 329" fill="none" xmlns="http://www.w3.org/2000/svg">
<rect x="0.5" y="0.5" width="1067" height="328" rx="1.5" fill="white" stroke="#EEF8FD"/>
<path fill-rule="evenodd" clip-rule="evenodd" d="M957.897 217H1019C1020.1 217 1021 217.895 1021 219C1021 220.105 1020.1 221 1019 221H957.897V217Z" fill="#FDC203"/>
<path fill-rule="evenodd" clip-rule="evenodd" d="M716 219C716 217.895 716.895 217 718 217H957.896V221H718C716.895 221 716 220.105 716 219Z" fill="#27AE60"/>
<path d="M719.329 199.623V203H717.121V193.197H720.58C723.05 193.197 724.285 194.239 724.285 196.321C724.285 197.306 723.93 198.103 723.219 198.714C722.512 199.32 721.567 199.623 720.382 199.623H719.329ZM719.329 194.893V197.948H720.197C721.373 197.948 721.961 197.433 721.961 196.403C721.961 195.396 721.373 194.893 720.197 194.893H719.329ZM730.978 203H728.934V201.995H728.906C728.437 202.779 727.742 203.171 726.821 203.171C726.142 203.171 725.607 202.979 725.215 202.597C724.827 202.209 724.634 201.694 724.634 201.052C724.634 199.694 725.438 198.91 727.047 198.7L728.947 198.447C728.947 197.682 728.533 197.299 727.703 197.299C726.869 197.299 726.076 197.547 725.324 198.044V196.417C725.625 196.262 726.035 196.125 726.555 196.007C727.079 195.888 727.555 195.829 727.983 195.829C729.979 195.829 730.978 196.825 730.978 198.816V203ZM728.947 200.156V199.685L727.676 199.849C726.974 199.94 726.623 200.257 726.623 200.799C726.623 201.045 726.707 201.248 726.876 201.407C727.049 201.562 727.282 201.64 727.573 201.64C727.979 201.64 728.309 201.501 728.564 201.223C728.82 200.94 728.947 200.585 728.947 200.156ZM739.352 196L736.508 203.561C735.824 205.379 734.794 206.288 733.418 206.288C732.894 206.288 732.463 206.229 732.126 206.11V204.388C732.413 204.556 732.725 204.641 733.062 204.641C733.618 204.641 734.006 204.379 734.225 203.854L734.594 202.986L731.75 196H734.143L735.448 200.259C735.53 200.523 735.594 200.835 735.64 201.195H735.667C735.708 200.931 735.783 200.623 735.893 200.272L737.212 196H739.352ZM751.335 203H749.182V199.008C749.182 197.992 748.808 197.483 748.061 197.483C747.705 197.483 747.416 197.636 747.192 197.941C746.969 198.247 746.857 198.627 746.857 199.083V203H744.697V198.967C744.697 197.978 744.33 197.483 743.597 197.483C743.228 197.483 742.931 197.629 742.708 197.921C742.489 198.213 742.38 198.609 742.38 199.11V203H740.22V196H742.38V197.094H742.407C742.631 196.72 742.943 196.417 743.344 196.185C743.749 195.948 744.191 195.829 744.67 195.829C745.659 195.829 746.336 196.264 746.7 197.135C747.233 196.264 748.017 195.829 749.052 195.829C750.574 195.829 751.335 196.768 751.335 198.646V203ZM759.333 200.115H754.767C754.84 201.132 755.48 201.64 756.688 201.64C757.458 201.64 758.134 201.457 758.718 201.093V202.651C758.071 202.998 757.23 203.171 756.195 203.171C755.065 203.171 754.188 202.859 753.563 202.234C752.939 201.605 752.627 200.73 752.627 199.609C752.627 198.447 752.964 197.527 753.639 196.848C754.313 196.169 755.143 195.829 756.127 195.829C757.148 195.829 757.936 196.132 758.492 196.738C759.053 197.344 759.333 198.167 759.333 199.206V200.115ZM757.33 198.789C757.33 197.786 756.924 197.285 756.113 197.285C755.767 197.285 755.466 197.429 755.211 197.716C754.96 198.003 754.808 198.361 754.753 198.789H757.33ZM767.379 203H765.226V199.11C765.226 198.026 764.838 197.483 764.063 197.483C763.69 197.483 763.382 197.627 763.141 197.914C762.899 198.201 762.778 198.566 762.778 199.008V203H760.618V196H762.778V197.107H762.806C763.321 196.255 764.07 195.829 765.055 195.829C766.604 195.829 767.379 196.791 767.379 198.714V203ZM773.326 202.918C773.007 203.087 772.526 203.171 771.884 203.171C770.362 203.171 769.601 202.38 769.601 200.799V197.593H768.466V196H769.601V194.489L771.754 193.874V196H773.326V197.593H771.754V200.423C771.754 201.152 772.043 201.517 772.622 201.517C772.85 201.517 773.085 201.451 773.326 201.318V202.918ZM774.092 202.815V201.065C774.447 201.28 774.8 201.439 775.151 201.544C775.507 201.649 775.842 201.701 776.156 201.701C776.539 201.701 776.84 201.649 777.059 201.544C777.282 201.439 777.394 201.28 777.394 201.065C777.394 200.929 777.343 200.815 777.243 200.724C777.143 200.632 777.013 200.553 776.854 200.484C776.699 200.416 776.528 200.354 776.341 200.3C776.154 200.245 775.974 200.184 775.801 200.115C775.523 200.01 775.277 199.899 775.062 199.78C774.853 199.657 774.675 199.516 774.529 199.356C774.388 199.197 774.279 199.012 774.201 198.803C774.128 198.593 774.092 198.345 774.092 198.058C774.092 197.666 774.176 197.328 774.345 197.046C774.518 196.763 774.746 196.533 775.028 196.355C775.315 196.173 775.641 196.041 776.006 195.959C776.375 195.872 776.758 195.829 777.154 195.829C777.464 195.829 777.779 195.854 778.098 195.904C778.417 195.95 778.731 196.018 779.041 196.109V197.777C778.768 197.618 778.474 197.499 778.159 197.422C777.849 197.34 777.544 197.299 777.243 197.299C777.102 197.299 776.967 197.312 776.84 197.34C776.717 197.363 776.607 197.399 776.512 197.449C776.416 197.495 776.341 197.556 776.286 197.634C776.231 197.707 776.204 197.791 776.204 197.887C776.204 198.014 776.245 198.124 776.327 198.215C776.409 198.306 776.516 198.386 776.648 198.454C776.781 198.518 776.926 198.577 777.086 198.632C777.25 198.682 777.412 198.734 777.571 198.789C777.858 198.889 778.118 198.999 778.351 199.117C778.583 199.236 778.781 199.375 778.945 199.534C779.114 199.694 779.242 199.881 779.328 200.095C779.419 200.309 779.465 200.564 779.465 200.86C779.465 201.275 779.374 201.631 779.191 201.927C779.014 202.218 778.774 202.458 778.474 202.645C778.177 202.827 777.833 202.959 777.441 203.041C777.054 203.128 776.651 203.171 776.231 203.171C775.461 203.171 774.748 203.052 774.092 202.815Z" fill="#262626"/>
<path d="M723.082 295.236H720.252V304H719.104V295.236H716.28V294.197H723.082V295.236ZM726.035 304.164C725.001 304.164 724.174 303.838 723.554 303.187C722.938 302.53 722.631 301.662 722.631 300.582C722.631 299.406 722.952 298.488 723.595 297.827C724.237 297.166 725.105 296.836 726.199 296.836C727.243 296.836 728.056 297.157 728.64 297.8C729.228 298.442 729.521 299.333 729.521 300.473C729.521 301.589 729.205 302.485 728.571 303.159C727.942 303.829 727.097 304.164 726.035 304.164ZM726.117 297.779C725.397 297.779 724.827 298.025 724.408 298.518C723.989 299.005 723.779 299.68 723.779 300.541C723.779 301.37 723.991 302.024 724.415 302.503C724.839 302.981 725.406 303.221 726.117 303.221C726.842 303.221 727.398 302.986 727.785 302.517C728.177 302.047 728.373 301.38 728.373 300.514C728.373 299.639 728.177 298.964 727.785 298.49C727.398 298.016 726.842 297.779 726.117 297.779ZM734.56 303.932C734.295 304.077 733.947 304.15 733.514 304.15C732.288 304.15 731.675 303.467 731.675 302.1V297.957H730.472V297H731.675V295.291L732.796 294.929V297H734.56V297.957H732.796V301.901C732.796 302.371 732.876 302.706 733.035 302.906C733.195 303.107 733.459 303.207 733.828 303.207C734.111 303.207 734.354 303.13 734.56 302.975V303.932ZM741.067 304H739.946V302.906H739.919C739.431 303.745 738.714 304.164 737.766 304.164C737.068 304.164 736.521 303.979 736.125 303.61C735.733 303.241 735.537 302.751 735.537 302.141C735.537 300.833 736.307 300.072 737.848 299.857L739.946 299.563C739.946 298.374 739.465 297.779 738.504 297.779C737.661 297.779 736.9 298.066 736.221 298.641V297.492C736.909 297.055 737.702 296.836 738.6 296.836C740.245 296.836 741.067 297.706 741.067 299.447V304ZM739.946 300.459L738.258 300.691C737.738 300.764 737.346 300.894 737.082 301.081C736.818 301.263 736.686 301.589 736.686 302.059C736.686 302.4 736.806 302.681 737.048 302.899C737.294 303.114 737.62 303.221 738.025 303.221C738.581 303.221 739.039 303.027 739.399 302.64C739.764 302.248 739.946 301.753 739.946 301.156V300.459ZM744.301 304H743.18V293.637H744.301V304ZM751.711 300.295V304H750.562V294.197H753.256C754.304 294.197 755.115 294.452 755.689 294.963C756.268 295.473 756.558 296.193 756.558 297.123C756.558 298.053 756.236 298.814 755.594 299.406C754.956 299.999 754.092 300.295 753.003 300.295H751.711ZM751.711 295.236V299.256H752.914C753.707 299.256 754.311 299.076 754.726 298.716C755.145 298.351 755.354 297.839 755.354 297.178C755.354 295.883 754.589 295.236 753.058 295.236H751.711ZM762.792 304H761.671V302.906H761.644C761.156 303.745 760.438 304.164 759.49 304.164C758.793 304.164 758.246 303.979 757.85 303.61C757.458 303.241 757.262 302.751 757.262 302.141C757.262 300.833 758.032 300.072 759.572 299.857L761.671 299.563C761.671 298.374 761.19 297.779 760.229 297.779C759.385 297.779 758.624 298.066 757.945 298.641V297.492C758.633 297.055 759.426 296.836 760.324 296.836C761.969 296.836 762.792 297.706 762.792 299.447V304ZM761.671 300.459L759.982 300.691C759.463 300.764 759.071 300.894 758.807 301.081C758.542 301.263 758.41 301.589 758.41 302.059C758.41 302.4 758.531 302.681 758.772 302.899C759.019 303.114 759.344 303.221 759.75 303.221C760.306 303.221 760.764 303.027 761.124 302.64C761.489 302.248 761.671 301.753 761.671 301.156V300.459ZM770.476 297L767.256 305.121C766.682 306.57 765.875 307.295 764.836 307.295C764.544 307.295 764.3 307.265 764.104 307.206V306.201C764.346 306.283 764.567 306.324 764.768 306.324C765.333 306.324 765.757 305.987 766.039 305.312L766.6 303.986L763.865 297H765.109L767.003 302.387C767.026 302.455 767.074 302.633 767.146 302.92H767.188C767.21 302.811 767.256 302.637 767.324 302.4L769.313 297H770.476ZM781.625 304H780.504V299.98C780.504 299.206 780.383 298.645 780.142 298.299C779.905 297.952 779.504 297.779 778.938 297.779C778.46 297.779 778.052 297.998 777.715 298.436C777.382 298.873 777.216 299.397 777.216 300.008V304H776.095V299.844C776.095 298.467 775.564 297.779 774.502 297.779C774.01 297.779 773.604 297.987 773.285 298.401C772.966 298.812 772.807 299.347 772.807 300.008V304H771.686V297H772.807V298.107H772.834C773.331 297.26 774.055 296.836 775.008 296.836C775.486 296.836 775.903 296.97 776.259 297.239C776.614 297.504 776.858 297.852 776.99 298.285C777.51 297.319 778.285 296.836 779.314 296.836C780.855 296.836 781.625 297.786 781.625 299.687V304ZM789.37 300.78H784.428C784.446 301.56 784.656 302.161 785.057 302.585C785.458 303.009 786.009 303.221 786.711 303.221C787.499 303.221 788.224 302.961 788.885 302.441V303.494C788.27 303.941 787.456 304.164 786.444 304.164C785.455 304.164 784.678 303.847 784.113 303.214C783.548 302.576 783.266 301.68 783.266 300.527C783.266 299.438 783.573 298.552 784.188 297.868C784.808 297.18 785.576 296.836 786.492 296.836C787.408 296.836 788.117 297.132 788.618 297.725C789.119 298.317 789.37 299.14 789.37 300.192V300.78ZM788.222 299.83C788.217 299.183 788.06 298.679 787.75 298.319C787.445 297.959 787.019 297.779 786.472 297.779C785.943 297.779 785.494 297.968 785.125 298.347C784.756 298.725 784.528 299.219 784.441 299.83H788.222ZM796.883 304H795.762V300.008C795.762 298.522 795.219 297.779 794.135 297.779C793.574 297.779 793.109 297.991 792.74 298.415C792.376 298.834 792.193 299.365 792.193 300.008V304H791.072V297H792.193V298.162H792.221C792.749 297.278 793.515 296.836 794.518 296.836C795.283 296.836 795.869 297.084 796.274 297.581C796.68 298.073 796.883 298.786 796.883 299.721V304ZM802.249 303.932C801.985 304.077 801.636 304.15 801.203 304.15C799.977 304.15 799.364 303.467 799.364 302.1V297.957H798.161V297H799.364V295.291L800.485 294.929V297H802.249V297.957H800.485V301.901C800.485 302.371 800.565 302.706 800.725 302.906C800.884 303.107 801.148 303.207 801.518 303.207C801.8 303.207 802.044 303.13 802.249 302.975V303.932ZM803.322 303.747V302.544C803.933 302.995 804.605 303.221 805.339 303.221C806.323 303.221 806.815 302.893 806.815 302.236C806.815 302.049 806.772 301.892 806.686 301.765C806.604 301.632 806.49 301.516 806.344 301.416C806.202 301.316 806.034 301.227 805.838 301.149C805.646 301.067 805.439 300.983 805.216 300.896C804.906 300.773 804.632 300.65 804.396 300.527C804.163 300.4 803.967 300.258 803.808 300.104C803.653 299.944 803.534 299.764 803.452 299.563C803.375 299.363 803.336 299.128 803.336 298.859C803.336 298.531 803.411 298.242 803.562 297.991C803.712 297.736 803.912 297.524 804.163 297.355C804.414 297.182 804.699 297.052 805.018 296.966C805.341 296.879 805.674 296.836 806.016 296.836C806.622 296.836 807.164 296.941 807.643 297.15V298.285C807.128 297.948 806.535 297.779 805.865 297.779C805.656 297.779 805.466 297.804 805.298 297.854C805.129 297.9 804.983 297.966 804.86 298.053C804.742 298.139 804.648 298.244 804.58 298.367C804.516 298.486 804.484 298.618 804.484 298.764C804.484 298.946 804.516 299.099 804.58 299.222C804.648 299.345 804.746 299.454 804.874 299.55C805.002 299.646 805.157 299.732 805.339 299.81C805.521 299.887 805.729 299.971 805.961 300.062C806.271 300.181 806.549 300.304 806.795 300.432C807.041 300.555 807.251 300.696 807.424 300.855C807.597 301.01 807.729 301.19 807.82 301.396C807.916 301.601 807.964 301.844 807.964 302.127C807.964 302.473 807.886 302.774 807.731 303.029C807.581 303.285 807.378 303.496 807.123 303.665C806.868 303.834 806.574 303.959 806.241 304.041C805.909 304.123 805.56 304.164 805.195 304.164C804.475 304.164 803.851 304.025 803.322 303.747ZM810.083 298.367C809.873 298.367 809.693 298.292 809.543 298.142C809.397 297.991 809.324 297.811 809.324 297.602C809.324 297.392 809.397 297.214 809.543 297.068C809.693 296.923 809.873 296.85 810.083 296.85C810.297 296.85 810.479 296.923 810.63 297.068C810.78 297.214 810.855 297.392 810.855 297.602C810.855 297.811 810.78 297.991 810.63 298.142C810.479 298.292 810.297 298.367 810.083 298.367ZM810.083 304.15C809.873 304.15 809.693 304.075 809.543 303.925C809.397 303.774 809.324 303.594 809.324 303.385C809.324 303.175 809.397 302.995 809.543 302.845C809.693 302.69 809.873 302.612 810.083 302.612C810.297 302.612 810.479 302.69 810.63 302.845C810.78 302.995 810.855 303.175 810.855 303.385C810.855 303.594 810.78 303.774 810.63 303.925C810.479 304.075 810.297 304.15 810.083 304.15Z" fill="#262626"/>
<path d="M821.123 293.979V304H818.97V296.412C818.851 296.517 818.71 296.617 818.546 296.713C818.386 296.804 818.215 296.888 818.033 296.966C817.851 297.039 817.662 297.103 817.466 297.157C817.27 297.207 817.076 297.244 816.885 297.267V295.448C817.445 295.284 817.974 295.075 818.471 294.819C818.967 294.564 819.416 294.284 819.817 293.979H821.123ZM827.46 304.171C825.127 304.171 823.96 302.533 823.96 299.256C823.96 297.556 824.274 296.262 824.903 295.373C825.537 294.48 826.453 294.033 827.651 294.033C829.93 294.033 831.069 295.699 831.069 299.03C831.069 300.689 830.757 301.961 830.133 302.845C829.513 303.729 828.622 304.171 827.46 304.171ZM827.556 295.681C826.621 295.681 826.154 296.854 826.154 299.201C826.154 301.411 826.612 302.517 827.528 302.517C828.422 302.517 828.868 301.377 828.868 299.099C828.868 296.82 828.431 295.681 827.556 295.681ZM835.513 304.171C833.179 304.171 832.013 302.533 832.013 299.256C832.013 297.556 832.327 296.262 832.956 295.373C833.59 294.48 834.506 294.033 835.704 294.033C837.983 294.033 839.122 295.699 839.122 299.03C839.122 300.689 838.81 301.961 838.186 302.845C837.566 303.729 836.675 304.171 835.513 304.171ZM835.608 295.681C834.674 295.681 834.207 296.854 834.207 299.201C834.207 301.411 834.665 302.517 835.581 302.517C836.474 302.517 836.921 301.377 836.921 299.099C836.921 296.82 836.483 295.681 835.608 295.681Z" fill="#1860EC"/>
<path d="M724.312 275H722.945L721.305 272.252C721.154 271.997 721.008 271.78 720.867 271.603C720.726 271.42 720.58 271.272 720.43 271.158C720.284 271.044 720.124 270.962 719.951 270.912C719.783 270.857 719.591 270.83 719.377 270.83H718.434V275H717.285V265.197H720.211C720.639 265.197 721.034 265.252 721.394 265.361C721.758 265.466 722.073 265.628 722.337 265.847C722.606 266.065 722.815 266.339 722.966 266.667C723.116 266.991 723.191 267.371 723.191 267.809C723.191 268.15 723.139 268.465 723.034 268.752C722.934 269.035 722.788 269.287 722.597 269.511C722.41 269.734 722.182 269.925 721.913 270.085C721.649 270.24 721.35 270.361 721.018 270.447V270.475C721.182 270.548 721.323 270.632 721.441 270.728C721.564 270.819 721.681 270.928 721.79 271.056C721.899 271.183 722.007 271.329 722.111 271.493C722.221 271.653 722.341 271.84 722.474 272.054L724.312 275ZM718.434 266.236V269.791H719.992C720.279 269.791 720.544 269.748 720.785 269.661C721.031 269.575 721.243 269.451 721.421 269.292C721.599 269.128 721.738 268.93 721.838 268.697C721.938 268.46 721.988 268.196 721.988 267.904C721.988 267.38 721.817 266.972 721.476 266.681C721.138 266.384 720.648 266.236 720.006 266.236H718.434ZM730.731 271.78H725.789C725.807 272.56 726.017 273.161 726.418 273.585C726.819 274.009 727.37 274.221 728.072 274.221C728.861 274.221 729.585 273.961 730.246 273.441V274.494C729.631 274.941 728.817 275.164 727.806 275.164C726.817 275.164 726.04 274.847 725.475 274.214C724.91 273.576 724.627 272.68 724.627 271.527C724.627 270.438 724.935 269.552 725.55 268.868C726.17 268.18 726.938 267.836 727.854 267.836C728.77 267.836 729.478 268.132 729.979 268.725C730.481 269.317 730.731 270.14 730.731 271.192V271.78ZM729.583 270.83C729.578 270.183 729.421 269.679 729.111 269.319C728.806 268.959 728.38 268.779 727.833 268.779C727.304 268.779 726.855 268.968 726.486 269.347C726.117 269.725 725.889 270.219 725.803 270.83H729.583ZM737.205 274.679C736.667 275.002 736.029 275.164 735.291 275.164C734.293 275.164 733.486 274.84 732.871 274.193C732.26 273.542 731.955 272.699 731.955 271.664C731.955 270.511 732.285 269.586 732.946 268.889C733.607 268.187 734.489 267.836 735.592 267.836C736.207 267.836 736.749 267.95 737.219 268.178V269.326C736.699 268.962 736.143 268.779 735.551 268.779C734.835 268.779 734.247 269.037 733.787 269.552C733.331 270.062 733.104 270.734 733.104 271.568C733.104 272.389 733.318 273.036 733.746 273.51C734.179 273.984 734.758 274.221 735.482 274.221C736.093 274.221 736.667 274.018 737.205 273.612V274.679ZM741.826 275.164C740.792 275.164 739.965 274.838 739.345 274.187C738.729 273.53 738.422 272.662 738.422 271.582C738.422 270.406 738.743 269.488 739.386 268.827C740.028 268.166 740.896 267.836 741.99 267.836C743.034 267.836 743.847 268.157 744.431 268.8C745.019 269.442 745.312 270.333 745.312 271.473C745.312 272.589 744.996 273.485 744.362 274.159C743.733 274.829 742.888 275.164 741.826 275.164ZM741.908 268.779C741.188 268.779 740.618 269.025 740.199 269.518C739.78 270.005 739.57 270.68 739.57 271.541C739.57 272.37 739.782 273.024 740.206 273.503C740.63 273.981 741.197 274.221 741.908 274.221C742.633 274.221 743.189 273.986 743.576 273.517C743.968 273.047 744.164 272.38 744.164 271.514C744.164 270.639 743.968 269.964 743.576 269.49C743.189 269.016 742.633 268.779 741.908 268.779ZM752.914 275H751.793V271.008C751.793 269.522 751.251 268.779 750.166 268.779C749.605 268.779 749.141 268.991 748.771 269.415C748.407 269.834 748.225 270.365 748.225 271.008V275H747.104V268H748.225V269.162H748.252C748.781 268.278 749.546 267.836 750.549 267.836C751.314 267.836 751.9 268.084 752.306 268.581C752.711 269.073 752.914 269.786 752.914 270.721V275ZM759.805 274.679C759.267 275.002 758.629 275.164 757.891 275.164C756.893 275.164 756.086 274.84 755.471 274.193C754.86 273.542 754.555 272.699 754.555 271.664C754.555 270.511 754.885 269.586 755.546 268.889C756.207 268.187 757.089 267.836 758.191 267.836C758.807 267.836 759.349 267.95 759.818 268.178V269.326C759.299 268.962 758.743 268.779 758.15 268.779C757.435 268.779 756.847 269.037 756.387 269.552C755.931 270.062 755.703 270.734 755.703 271.568C755.703 272.389 755.917 273.036 756.346 273.51C756.779 273.984 757.357 274.221 758.082 274.221C758.693 274.221 759.267 274.018 759.805 273.612V274.679ZM762.074 266.223C761.874 266.223 761.703 266.154 761.562 266.018C761.42 265.881 761.35 265.708 761.35 265.498C761.35 265.288 761.42 265.115 761.562 264.979C761.703 264.837 761.874 264.767 762.074 264.767C762.279 264.767 762.452 264.837 762.594 264.979C762.74 265.115 762.812 265.288 762.812 265.498C762.812 265.699 762.74 265.869 762.594 266.011C762.452 266.152 762.279 266.223 762.074 266.223ZM762.621 275H761.5V268H762.621V275ZM766.012 275H764.891V264.637H766.012V275ZM769.402 275H768.281V264.637H769.402V275ZM777.298 271.78H772.355C772.374 272.56 772.583 273.161 772.984 273.585C773.385 274.009 773.937 274.221 774.639 274.221C775.427 274.221 776.152 273.961 776.812 273.441V274.494C776.197 274.941 775.384 275.164 774.372 275.164C773.383 275.164 772.606 274.847 772.041 274.214C771.476 273.576 771.193 272.68 771.193 271.527C771.193 270.438 771.501 269.552 772.116 268.868C772.736 268.18 773.504 267.836 774.42 267.836C775.336 267.836 776.045 268.132 776.546 268.725C777.047 269.317 777.298 270.14 777.298 271.192V271.78ZM776.149 270.83C776.145 270.183 775.988 269.679 775.678 269.319C775.372 268.959 774.946 268.779 774.399 268.779C773.871 268.779 773.422 268.968 773.053 269.347C772.684 269.725 772.456 270.219 772.369 270.83H776.149ZM784.975 275H783.854V273.811H783.826C783.307 274.713 782.505 275.164 781.42 275.164C780.54 275.164 779.836 274.852 779.308 274.228C778.784 273.599 778.521 272.744 778.521 271.664C778.521 270.507 778.813 269.579 779.396 268.882C779.98 268.185 780.757 267.836 781.728 267.836C782.689 267.836 783.389 268.214 783.826 268.971H783.854V264.637H784.975V275ZM783.854 271.835V270.803C783.854 270.238 783.667 269.759 783.293 269.367C782.919 268.975 782.445 268.779 781.871 268.779C781.188 268.779 780.65 269.03 780.258 269.531C779.866 270.033 779.67 270.725 779.67 271.609C779.67 272.416 779.857 273.054 780.23 273.523C780.609 273.988 781.115 274.221 781.748 274.221C782.372 274.221 782.878 273.995 783.266 273.544C783.658 273.093 783.854 272.523 783.854 271.835ZM792.385 271.295V275H791.236V265.197H793.93C794.978 265.197 795.789 265.452 796.363 265.963C796.942 266.473 797.231 267.193 797.231 268.123C797.231 269.053 796.91 269.814 796.268 270.406C795.63 270.999 794.766 271.295 793.677 271.295H792.385ZM792.385 266.236V270.256H793.588C794.381 270.256 794.985 270.076 795.399 269.716C795.819 269.351 796.028 268.839 796.028 268.178C796.028 266.883 795.263 266.236 793.731 266.236H792.385ZM803.466 275H802.345V273.906H802.317C801.83 274.745 801.112 275.164 800.164 275.164C799.467 275.164 798.92 274.979 798.523 274.61C798.132 274.241 797.936 273.751 797.936 273.141C797.936 271.833 798.706 271.072 800.246 270.857L802.345 270.563C802.345 269.374 801.864 268.779 800.902 268.779C800.059 268.779 799.298 269.066 798.619 269.641V268.492C799.307 268.055 800.1 267.836 800.998 267.836C802.643 267.836 803.466 268.706 803.466 270.447V275ZM802.345 271.459L800.656 271.691C800.137 271.764 799.745 271.894 799.48 272.081C799.216 272.263 799.084 272.589 799.084 273.059C799.084 273.4 799.205 273.681 799.446 273.899C799.692 274.114 800.018 274.221 800.424 274.221C800.98 274.221 801.438 274.027 801.798 273.64C802.162 273.248 802.345 272.753 802.345 272.156V271.459ZM811.149 268L807.93 276.121C807.355 277.57 806.549 278.295 805.51 278.295C805.218 278.295 804.974 278.265 804.778 278.206V277.201C805.02 277.283 805.241 277.324 805.441 277.324C806.007 277.324 806.43 276.987 806.713 276.312L807.273 274.986L804.539 268H805.783L807.677 273.387C807.7 273.455 807.747 273.633 807.82 273.92H807.861C807.884 273.811 807.93 273.637 807.998 273.4L809.987 268H811.149ZM822.299 275H821.178V270.98C821.178 270.206 821.057 269.645 820.815 269.299C820.578 268.952 820.177 268.779 819.612 268.779C819.134 268.779 818.726 268.998 818.389 269.436C818.056 269.873 817.89 270.397 817.89 271.008V275H816.769V270.844C816.769 269.467 816.238 268.779 815.176 268.779C814.684 268.779 814.278 268.987 813.959 269.401C813.64 269.812 813.48 270.347 813.48 271.008V275H812.359V268H813.48V269.107H813.508C814.005 268.26 814.729 267.836 815.682 267.836C816.16 267.836 816.577 267.97 816.933 268.239C817.288 268.504 817.532 268.852 817.664 269.285C818.184 268.319 818.958 267.836 819.988 267.836C821.529 267.836 822.299 268.786 822.299 270.687V275ZM830.044 271.78H825.102C825.12 272.56 825.329 273.161 825.73 273.585C826.132 274.009 826.683 274.221 827.385 274.221C828.173 274.221 828.898 273.961 829.559 273.441V274.494C828.943 274.941 828.13 275.164 827.118 275.164C826.129 275.164 825.352 274.847 824.787 274.214C824.222 273.576 823.939 272.68 823.939 271.527C823.939 270.438 824.247 269.552 824.862 268.868C825.482 268.18 826.25 267.836 827.166 267.836C828.082 267.836 828.791 268.132 829.292 268.725C829.793 269.317 830.044 270.14 830.044 271.192V271.78ZM828.896 270.83C828.891 270.183 828.734 269.679 828.424 269.319C828.118 268.959 827.692 268.779 827.146 268.779C826.617 268.779 826.168 268.968 825.799 269.347C825.43 269.725 825.202 270.219 825.115 270.83H828.896ZM837.557 275H836.436V271.008C836.436 269.522 835.893 268.779 834.809 268.779C834.248 268.779 833.783 268.991 833.414 269.415C833.049 269.834 832.867 270.365 832.867 271.008V275H831.746V268H832.867V269.162H832.895C833.423 268.278 834.189 267.836 835.191 267.836C835.957 267.836 836.543 268.084 836.948 268.581C837.354 269.073 837.557 269.786 837.557 270.721V275ZM842.923 274.932C842.659 275.077 842.31 275.15 841.877 275.15C840.651 275.15 840.038 274.467 840.038 273.1V268.957H838.835V268H840.038V266.291L841.159 265.929V268H842.923V268.957H841.159V272.901C841.159 273.371 841.239 273.706 841.398 273.906C841.558 274.107 841.822 274.207 842.191 274.207C842.474 274.207 842.718 274.13 842.923 273.975V274.932ZM843.996 274.747V273.544C844.607 273.995 845.279 274.221 846.013 274.221C846.997 274.221 847.489 273.893 847.489 273.236C847.489 273.049 847.446 272.892 847.359 272.765C847.277 272.632 847.163 272.516 847.018 272.416C846.876 272.316 846.708 272.227 846.512 272.149C846.32 272.067 846.113 271.983 845.89 271.896C845.58 271.773 845.306 271.65 845.069 271.527C844.837 271.4 844.641 271.258 844.481 271.104C844.326 270.944 844.208 270.764 844.126 270.563C844.049 270.363 844.01 270.128 844.01 269.859C844.01 269.531 844.085 269.242 844.235 268.991C844.386 268.736 844.586 268.524 844.837 268.355C845.088 268.182 845.372 268.052 845.691 267.966C846.015 267.879 846.348 267.836 846.689 267.836C847.296 267.836 847.838 267.941 848.316 268.15V269.285C847.801 268.948 847.209 268.779 846.539 268.779C846.329 268.779 846.14 268.804 845.972 268.854C845.803 268.9 845.657 268.966 845.534 269.053C845.416 269.139 845.322 269.244 845.254 269.367C845.19 269.486 845.158 269.618 845.158 269.764C845.158 269.946 845.19 270.099 845.254 270.222C845.322 270.345 845.42 270.454 845.548 270.55C845.675 270.646 845.83 270.732 846.013 270.81C846.195 270.887 846.402 270.971 846.635 271.062C846.945 271.181 847.223 271.304 847.469 271.432C847.715 271.555 847.924 271.696 848.098 271.855C848.271 272.01 848.403 272.19 848.494 272.396C848.59 272.601 848.638 272.844 848.638 273.127C848.638 273.473 848.56 273.774 848.405 274.029C848.255 274.285 848.052 274.496 847.797 274.665C847.542 274.834 847.248 274.959 846.915 275.041C846.582 275.123 846.234 275.164 845.869 275.164C845.149 275.164 844.525 275.025 843.996 274.747ZM850.757 269.367C850.547 269.367 850.367 269.292 850.217 269.142C850.071 268.991 849.998 268.811 849.998 268.602C849.998 268.392 850.071 268.214 850.217 268.068C850.367 267.923 850.547 267.85 850.757 267.85C850.971 267.85 851.153 267.923 851.304 268.068C851.454 268.214 851.529 268.392 851.529 268.602C851.529 268.811 851.454 268.991 851.304 269.142C851.153 269.292 850.971 269.367 850.757 269.367ZM850.757 275.15C850.547 275.15 850.367 275.075 850.217 274.925C850.071 274.774 849.998 274.594 849.998 274.385C849.998 274.175 850.071 273.995 850.217 273.845C850.367 273.69 850.547 273.612 850.757 273.612C850.971 273.612 851.153 273.69 851.304 273.845C851.454 273.995 851.529 274.175 851.529 274.385C851.529 274.594 851.454 274.774 851.304 274.925C851.153 275.075 850.971 275.15 850.757 275.15Z" fill="#262626"/>
<path d="M856.656 272.361C856.656 272.088 856.695 271.826 856.772 271.575C856.854 271.32 856.975 271.085 857.135 270.871C857.294 270.652 857.493 270.459 857.729 270.29C857.971 270.117 858.254 269.976 858.577 269.866C858.08 269.62 857.695 269.306 857.422 268.923C857.148 268.535 857.012 268.107 857.012 267.638C857.012 267.264 857.089 266.918 857.244 266.599C857.404 266.28 857.622 266.004 857.9 265.771C858.178 265.539 858.509 265.359 858.892 265.231C859.279 265.099 859.701 265.033 860.156 265.033C860.621 265.033 861.047 265.099 861.435 265.231C861.822 265.359 862.155 265.539 862.433 265.771C862.715 265.999 862.934 266.271 863.089 266.585C863.244 266.899 863.321 267.241 863.321 267.61C863.321 268.075 863.175 268.499 862.884 268.882C862.592 269.26 862.189 269.572 861.674 269.818C861.993 269.928 862.273 270.069 862.515 270.242C862.756 270.411 862.959 270.604 863.123 270.823C863.287 271.042 863.41 271.281 863.492 271.541C863.574 271.796 863.615 272.063 863.615 272.341C863.615 272.76 863.531 273.143 863.362 273.489C863.194 273.831 862.954 274.127 862.645 274.378C862.339 274.624 861.972 274.815 861.544 274.952C861.12 275.089 860.651 275.157 860.136 275.157C859.63 275.157 859.163 275.091 858.734 274.959C858.311 274.822 857.944 274.631 857.634 274.385C857.328 274.139 857.089 273.845 856.916 273.503C856.743 273.157 856.656 272.776 856.656 272.361ZM858.7 272.177C858.7 272.4 858.734 272.601 858.803 272.778C858.871 272.956 858.969 273.106 859.097 273.229C859.224 273.353 859.375 273.448 859.548 273.517C859.726 273.58 859.924 273.612 860.143 273.612C860.352 273.612 860.544 273.578 860.717 273.51C860.895 273.441 861.047 273.346 861.175 273.223C861.302 273.1 861.403 272.949 861.476 272.771C861.549 272.594 861.585 272.396 861.585 272.177C861.585 271.981 861.551 271.794 861.482 271.616C861.414 271.438 861.316 271.286 861.188 271.158C861.061 271.026 860.908 270.921 860.73 270.844C860.557 270.766 860.361 270.728 860.143 270.728C859.938 270.728 859.746 270.764 859.568 270.837C859.391 270.905 859.238 271.006 859.11 271.138C858.983 271.265 858.882 271.418 858.81 271.596C858.737 271.773 858.7 271.967 858.7 272.177ZM859.001 267.836C859.001 268.009 859.031 268.173 859.09 268.328C859.154 268.479 859.238 268.611 859.343 268.725C859.448 268.834 859.571 268.921 859.712 268.984C859.858 269.048 860.01 269.08 860.17 269.08C860.334 269.08 860.487 269.048 860.628 268.984C860.769 268.921 860.892 268.832 860.997 268.718C861.106 268.604 861.191 268.472 861.25 268.321C861.314 268.171 861.346 268.009 861.346 267.836C861.346 267.658 861.316 267.494 861.257 267.344C861.198 267.189 861.113 267.057 861.004 266.947C860.899 266.833 860.774 266.744 860.628 266.681C860.487 266.617 860.334 266.585 860.17 266.585C859.997 266.585 859.837 266.619 859.691 266.688C859.55 266.751 859.427 266.84 859.322 266.954C859.222 267.063 859.142 267.196 859.083 267.351C859.028 267.501 859.001 267.663 859.001 267.836ZM868.134 275.171C865.8 275.171 864.634 273.533 864.634 270.256C864.634 268.556 864.948 267.262 865.577 266.373C866.211 265.48 867.127 265.033 868.325 265.033C870.604 265.033 871.743 266.699 871.743 270.03C871.743 271.689 871.431 272.961 870.807 273.845C870.187 274.729 869.296 275.171 868.134 275.171ZM868.229 266.681C867.295 266.681 866.828 267.854 866.828 270.201C866.828 272.411 867.286 273.517 868.202 273.517C869.095 273.517 869.542 272.377 869.542 270.099C869.542 267.82 869.104 266.681 868.229 266.681Z" fill="#27AE60"/>
<path d="M724.456 243.035C724.456 245.788 723.214 247.164 720.73 247.164C718.352 247.164 717.162 245.84 717.162 243.192V237.197H718.311V243.117C718.311 245.127 719.158 246.132 720.854 246.132C722.49 246.132 723.308 245.161 723.308 243.22V237.197H724.456V243.035ZM732.57 247H731.449V243.008C731.449 241.522 730.907 240.779 729.822 240.779C729.262 240.779 728.797 240.991 728.428 241.415C728.063 241.834 727.881 242.365 727.881 243.008V247H726.76V240H727.881V241.162H727.908C728.437 240.278 729.202 239.836 730.205 239.836C730.971 239.836 731.556 240.084 731.962 240.581C732.368 241.073 732.57 241.786 732.57 242.721V247ZM738.271 243.541H734.539V242.659H738.271V243.541ZM743.945 241.135C743.749 240.984 743.467 240.909 743.098 240.909C742.619 240.909 742.218 241.135 741.895 241.586C741.576 242.037 741.416 242.652 741.416 243.432V247H740.295V240H741.416V241.442H741.443C741.603 240.95 741.847 240.567 742.175 240.294C742.503 240.016 742.87 239.877 743.275 239.877C743.567 239.877 743.79 239.909 743.945 239.973V241.135ZM750.788 243.78H745.846C745.864 244.56 746.074 245.161 746.475 245.585C746.876 246.009 747.427 246.221 748.129 246.221C748.917 246.221 749.642 245.961 750.303 245.441V246.494C749.688 246.941 748.874 247.164 747.862 247.164C746.873 247.164 746.096 246.847 745.531 246.214C744.966 245.576 744.684 244.68 744.684 243.527C744.684 242.438 744.991 241.552 745.606 240.868C746.226 240.18 746.994 239.836 747.91 239.836C748.826 239.836 749.535 240.132 750.036 240.725C750.537 241.317 750.788 242.14 750.788 243.192V243.78ZM749.64 242.83C749.635 242.183 749.478 241.679 749.168 241.319C748.863 240.959 748.437 240.779 747.89 240.779C747.361 240.779 746.912 240.968 746.543 241.347C746.174 241.725 745.946 242.219 745.859 242.83H749.64ZM757.262 246.679C756.724 247.002 756.086 247.164 755.348 247.164C754.35 247.164 753.543 246.84 752.928 246.193C752.317 245.542 752.012 244.699 752.012 243.664C752.012 242.511 752.342 241.586 753.003 240.889C753.664 240.187 754.546 239.836 755.648 239.836C756.264 239.836 756.806 239.95 757.275 240.178V241.326C756.756 240.962 756.2 240.779 755.607 240.779C754.892 240.779 754.304 241.037 753.844 241.552C753.388 242.062 753.16 242.734 753.16 243.568C753.16 244.389 753.374 245.036 753.803 245.51C754.236 245.984 754.814 246.221 755.539 246.221C756.15 246.221 756.724 246.018 757.262 245.612V246.679ZM761.883 247.164C760.848 247.164 760.021 246.838 759.401 246.187C758.786 245.53 758.479 244.662 758.479 243.582C758.479 242.406 758.8 241.488 759.442 240.827C760.085 240.166 760.953 239.836 762.047 239.836C763.09 239.836 763.904 240.157 764.487 240.8C765.075 241.442 765.369 242.333 765.369 243.473C765.369 244.589 765.052 245.485 764.419 246.159C763.79 246.829 762.945 247.164 761.883 247.164ZM761.965 240.779C761.245 240.779 760.675 241.025 760.256 241.518C759.837 242.005 759.627 242.68 759.627 243.541C759.627 244.37 759.839 245.024 760.263 245.503C760.687 245.981 761.254 246.221 761.965 246.221C762.689 246.221 763.245 245.986 763.633 245.517C764.025 245.047 764.221 244.38 764.221 243.514C764.221 242.639 764.025 241.964 763.633 241.49C763.245 241.016 762.689 240.779 761.965 240.779ZM772.971 247H771.85V243.008C771.85 241.522 771.307 240.779 770.223 240.779C769.662 240.779 769.197 240.991 768.828 241.415C768.464 241.834 768.281 242.365 768.281 243.008V247H767.16V240H768.281V241.162H768.309C768.837 240.278 769.603 239.836 770.605 239.836C771.371 239.836 771.957 240.084 772.362 240.581C772.768 241.073 772.971 241.786 772.971 242.721V247ZM779.861 246.679C779.324 247.002 778.686 247.164 777.947 247.164C776.949 247.164 776.143 246.84 775.527 246.193C774.917 245.542 774.611 244.699 774.611 243.664C774.611 242.511 774.942 241.586 775.603 240.889C776.263 240.187 777.145 239.836 778.248 239.836C778.863 239.836 779.406 239.95 779.875 240.178V241.326C779.355 240.962 778.799 240.779 778.207 240.779C777.492 240.779 776.904 241.037 776.443 241.552C775.988 242.062 775.76 242.734 775.76 243.568C775.76 244.389 775.974 245.036 776.402 245.51C776.835 245.984 777.414 246.221 778.139 246.221C778.749 246.221 779.324 246.018 779.861 245.612V246.679ZM782.131 238.223C781.93 238.223 781.759 238.154 781.618 238.018C781.477 237.881 781.406 237.708 781.406 237.498C781.406 237.288 781.477 237.115 781.618 236.979C781.759 236.837 781.93 236.767 782.131 236.767C782.336 236.767 782.509 236.837 782.65 236.979C782.796 237.115 782.869 237.288 782.869 237.498C782.869 237.699 782.796 237.869 782.65 238.011C782.509 238.152 782.336 238.223 782.131 238.223ZM782.678 247H781.557V240H782.678V247ZM786.068 247H784.947V236.637H786.068V247ZM789.459 247H788.338V236.637H789.459V247ZM797.354 243.78H792.412C792.43 244.56 792.64 245.161 793.041 245.585C793.442 246.009 793.993 246.221 794.695 246.221C795.484 246.221 796.208 245.961 796.869 245.441V246.494C796.254 246.941 795.44 247.164 794.429 247.164C793.44 247.164 792.663 246.847 792.098 246.214C791.533 245.576 791.25 244.68 791.25 243.527C791.25 242.438 791.558 241.552 792.173 240.868C792.793 240.18 793.561 239.836 794.477 239.836C795.393 239.836 796.101 240.132 796.603 240.725C797.104 241.317 797.354 242.14 797.354 243.192V243.78ZM796.206 242.83C796.201 242.183 796.044 241.679 795.734 241.319C795.429 240.959 795.003 240.779 794.456 240.779C793.927 240.779 793.479 240.968 793.109 241.347C792.74 241.725 792.512 242.219 792.426 242.83H796.206ZM805.031 247H803.91V245.811H803.883C803.363 246.713 802.561 247.164 801.477 247.164C800.597 247.164 799.893 246.852 799.364 246.228C798.84 245.599 798.578 244.744 798.578 243.664C798.578 242.507 798.87 241.579 799.453 240.882C800.036 240.185 800.813 239.836 801.784 239.836C802.746 239.836 803.445 240.214 803.883 240.971H803.91V236.637H805.031V247ZM803.91 243.835V242.803C803.91 242.238 803.723 241.759 803.35 241.367C802.976 240.975 802.502 240.779 801.928 240.779C801.244 240.779 800.706 241.03 800.314 241.531C799.923 242.033 799.727 242.725 799.727 243.609C799.727 244.416 799.913 245.054 800.287 245.523C800.665 245.988 801.171 246.221 801.805 246.221C802.429 246.221 802.935 245.995 803.322 245.544C803.714 245.093 803.91 244.523 803.91 243.835ZM812.441 243.295V247H811.293V237.197H813.986C815.035 237.197 815.846 237.452 816.42 237.963C816.999 238.473 817.288 239.193 817.288 240.123C817.288 241.053 816.967 241.814 816.324 242.406C815.686 242.999 814.823 243.295 813.733 243.295H812.441ZM812.441 238.236V242.256H813.645C814.438 242.256 815.041 242.076 815.456 241.716C815.875 241.351 816.085 240.839 816.085 240.178C816.085 238.883 815.319 238.236 813.788 238.236H812.441ZM823.522 247H822.401V245.906H822.374C821.886 246.745 821.169 247.164 820.221 247.164C819.523 247.164 818.977 246.979 818.58 246.61C818.188 246.241 817.992 245.751 817.992 245.141C817.992 243.833 818.762 243.072 820.303 242.857L822.401 242.563C822.401 241.374 821.921 240.779 820.959 240.779C820.116 240.779 819.355 241.066 818.676 241.641V240.492C819.364 240.055 820.157 239.836 821.055 239.836C822.7 239.836 823.522 240.706 823.522 242.447V247ZM822.401 243.459L820.713 243.691C820.193 243.764 819.801 243.894 819.537 244.081C819.273 244.263 819.141 244.589 819.141 245.059C819.141 245.4 819.261 245.681 819.503 245.899C819.749 246.114 820.075 246.221 820.48 246.221C821.036 246.221 821.494 246.027 821.854 245.64C822.219 245.248 822.401 244.753 822.401 244.156V243.459ZM831.206 240L827.986 248.121C827.412 249.57 826.605 250.295 825.566 250.295C825.275 250.295 825.031 250.265 824.835 250.206V249.201C825.076 249.283 825.298 249.324 825.498 249.324C826.063 249.324 826.487 248.987 826.77 248.312L827.33 246.986L824.596 240H825.84L827.733 245.387C827.756 245.455 827.804 245.633 827.877 245.92H827.918C827.941 245.811 827.986 245.637 828.055 245.4L830.044 240H831.206ZM842.355 247H841.234V242.98C841.234 242.206 841.114 241.645 840.872 241.299C840.635 240.952 840.234 240.779 839.669 240.779C839.19 240.779 838.783 240.998 838.445 241.436C838.113 241.873 837.946 242.397 837.946 243.008V247H836.825V242.844C836.825 241.467 836.294 240.779 835.232 240.779C834.74 240.779 834.335 240.987 834.016 241.401C833.697 241.812 833.537 242.347 833.537 243.008V247H832.416V240H833.537V241.107H833.564C834.061 240.26 834.786 239.836 835.738 239.836C836.217 239.836 836.634 239.97 836.989 240.239C837.345 240.504 837.589 240.852 837.721 241.285C838.24 240.319 839.015 239.836 840.045 239.836C841.585 239.836 842.355 240.786 842.355 242.687V247ZM850.101 243.78H845.158C845.176 244.56 845.386 245.161 845.787 245.585C846.188 246.009 846.74 246.221 847.441 246.221C848.23 246.221 848.954 245.961 849.615 245.441V246.494C849 246.941 848.187 247.164 847.175 247.164C846.186 247.164 845.409 246.847 844.844 246.214C844.279 245.576 843.996 244.68 843.996 243.527C843.996 242.438 844.304 241.552 844.919 240.868C845.539 240.18 846.307 239.836 847.223 239.836C848.139 239.836 848.847 240.132 849.349 240.725C849.85 241.317 850.101 242.14 850.101 243.192V243.78ZM848.952 242.83C848.948 242.183 848.79 241.679 848.48 241.319C848.175 240.959 847.749 240.779 847.202 240.779C846.674 240.779 846.225 240.968 845.855 241.347C845.486 241.725 845.258 242.219 845.172 242.83H848.952ZM857.613 247H856.492V243.008C856.492 241.522 855.95 240.779 854.865 240.779C854.305 240.779 853.84 240.991 853.471 241.415C853.106 241.834 852.924 242.365 852.924 243.008V247H851.803V240H852.924V241.162H852.951C853.48 240.278 854.245 239.836 855.248 239.836C856.014 239.836 856.599 240.084 857.005 240.581C857.41 241.073 857.613 241.786 857.613 242.721V247ZM862.979 246.932C862.715 247.077 862.367 247.15 861.934 247.15C860.708 247.15 860.095 246.467 860.095 245.1V240.957H858.892V240H860.095V238.291L861.216 237.929V240H862.979V240.957H861.216V244.901C861.216 245.371 861.296 245.706 861.455 245.906C861.615 246.107 861.879 246.207 862.248 246.207C862.531 246.207 862.774 246.13 862.979 245.975V246.932ZM864.053 246.747V245.544C864.663 245.995 865.336 246.221 866.069 246.221C867.054 246.221 867.546 245.893 867.546 245.236C867.546 245.049 867.503 244.892 867.416 244.765C867.334 244.632 867.22 244.516 867.074 244.416C866.933 244.316 866.764 244.227 866.568 244.149C866.377 244.067 866.17 243.983 865.946 243.896C865.636 243.773 865.363 243.65 865.126 243.527C864.894 243.4 864.698 243.258 864.538 243.104C864.383 242.944 864.265 242.764 864.183 242.563C864.105 242.363 864.066 242.128 864.066 241.859C864.066 241.531 864.142 241.242 864.292 240.991C864.442 240.736 864.643 240.524 864.894 240.355C865.144 240.182 865.429 240.052 865.748 239.966C866.072 239.879 866.404 239.836 866.746 239.836C867.352 239.836 867.895 239.941 868.373 240.15V241.285C867.858 240.948 867.266 240.779 866.596 240.779C866.386 240.779 866.197 240.804 866.028 240.854C865.86 240.9 865.714 240.966 865.591 241.053C865.472 241.139 865.379 241.244 865.311 241.367C865.247 241.486 865.215 241.618 865.215 241.764C865.215 241.946 865.247 242.099 865.311 242.222C865.379 242.345 865.477 242.454 865.604 242.55C865.732 242.646 865.887 242.732 866.069 242.81C866.252 242.887 866.459 242.971 866.691 243.062C867.001 243.181 867.279 243.304 867.525 243.432C867.771 243.555 867.981 243.696 868.154 243.855C868.327 244.01 868.46 244.19 868.551 244.396C868.646 244.601 868.694 244.844 868.694 245.127C868.694 245.473 868.617 245.774 868.462 246.029C868.312 246.285 868.109 246.496 867.854 246.665C867.598 246.834 867.304 246.959 866.972 247.041C866.639 247.123 866.29 247.164 865.926 247.164C865.206 247.164 864.581 247.025 864.053 246.747ZM870.813 241.367C870.604 241.367 870.424 241.292 870.273 241.142C870.128 240.991 870.055 240.811 870.055 240.602C870.055 240.392 870.128 240.214 870.273 240.068C870.424 239.923 870.604 239.85 870.813 239.85C871.028 239.85 871.21 239.923 871.36 240.068C871.511 240.214 871.586 240.392 871.586 240.602C871.586 240.811 871.511 240.991 871.36 241.142C871.21 241.292 871.028 241.367 870.813 241.367ZM870.813 247.15C870.604 247.15 870.424 247.075 870.273 246.925C870.128 246.774 870.055 246.594 870.055 246.385C870.055 246.175 870.128 245.995 870.273 245.845C870.424 245.69 870.604 245.612 870.813 245.612C871.028 245.612 871.21 245.69 871.36 245.845C871.511 245.995 871.586 246.175 871.586 246.385C871.586 246.594 871.511 246.774 871.36 246.925C871.21 247.075 871.028 247.15 870.813 247.15Z" fill="#262626"/>
<path d="M879.099 245.209H883.255V247H876.733V246.262C876.733 245.76 876.818 245.312 876.986 244.915C877.155 244.514 877.367 244.156 877.622 243.842C877.877 243.523 878.155 243.243 878.456 243.001C878.761 242.755 879.051 242.534 879.324 242.338C879.611 242.133 879.862 241.937 880.076 241.75C880.295 241.563 880.477 241.379 880.623 241.196C880.773 241.009 880.885 240.823 880.958 240.636C881.031 240.444 881.067 240.242 881.067 240.027C881.067 239.608 880.949 239.291 880.712 239.077C880.475 238.863 880.113 238.756 879.625 238.756C878.782 238.756 877.975 239.091 877.205 239.761V237.86C878.057 237.309 879.019 237.033 880.09 237.033C880.587 237.033 881.031 237.099 881.423 237.231C881.819 237.359 882.154 237.544 882.428 237.785C882.701 238.027 882.909 238.321 883.05 238.667C883.196 239.009 883.269 239.392 883.269 239.815C883.269 240.267 883.198 240.668 883.057 241.019C882.92 241.369 882.735 241.688 882.503 241.976C882.275 242.263 882.011 242.527 881.71 242.769C881.409 243.006 881.097 243.236 880.773 243.459C880.555 243.614 880.343 243.769 880.138 243.924C879.937 244.074 879.759 244.225 879.604 244.375C879.45 244.521 879.326 244.664 879.235 244.806C879.144 244.947 879.099 245.081 879.099 245.209ZM888.19 247.171C885.857 247.171 884.69 245.533 884.69 242.256C884.69 240.556 885.005 239.262 885.634 238.373C886.267 237.48 887.183 237.033 888.382 237.033C890.66 237.033 891.8 238.699 891.8 242.03C891.8 243.689 891.488 244.961 890.863 245.845C890.243 246.729 889.353 247.171 888.19 247.171ZM888.286 238.681C887.352 238.681 886.885 239.854 886.885 242.201C886.885 244.411 887.343 245.517 888.259 245.517C889.152 245.517 889.599 244.377 889.599 242.099C889.599 239.82 889.161 238.681 888.286 238.681Z" fill="#EBC315"/>
</svg>